<svg xmlns="http://www.w3.org/2000/svg" viewBox="0 0 32 32">
  <path fill="currentColor" d="M16 3C9.9 3 5 7.8 5 13.9c0 2.4.8 4.6 2.3 6.5L6 27l6.9-1.8c1.8 1 3.8 1.5 5.9 1.5 6.1 0 11-4.8 11-10.9S22.1 3 16 3zm0 19.4c-1.7 0-3.4-.5-4.9-1.3l-.4-.2-3 .8.8-2.9-.3-.4c-1.1-1.5-1.7-3.2-1.7-5 0-5 4.2-9 9.5-9s9.5 4 9.5 9-4.2 9-9.5 9zm5-5.1c-.3-.2-1.7-.9-2-1s-.5-.2-.7.2c-.2.3-.8 1-1 1.1-.2.2-.4.2-.7 0s-1.3-.5-2.5-1.6c-.9-.8-1.5-1.8-1.7-2.1-.2-.4 0-.6.1-.8.1-.1.3-.4.4-.6s.2-.3.3-.5c.1-.2 0-.4 0-.6 0-.2-.7-1.7-1-2.3-.3-.6-.5-.5-.7-.5h-.6c-.2 0-.5.1-.8.4-.3.3-1 1-1 2.4s1 2.8 1.1 3c.1.2 2 3.4 4.8 4.9.7.4 1.3.6 1.8.8.8.3 1.5.2 2 .1.6-.1 1.7-.7 1.9-1.4.2-.7.2-1.3.1-1.4-.1-.2-.3-.2-.6-.4z"></path>
</svg>
